<svg width="35" height="35" viewBox="0 0 35 35" fill="none" xmlns="http://www.w3.org/2000/svg">
<circle cx="17.5" cy="17.5" r="16.75" stroke="#2E6D5C" stroke-width="1.5"/>
<path d="M21.0575 23.0308C18.7115 23.0308 16.2903 21.948 14.4105 20.0682C12.4254 18.0831 11.3426 15.6018 11.4028 13.2107V13.1204L11.4629 13.0452C11.6283 12.8347 11.7938 12.6542 11.9592 12.4738C12.5908 11.8422 13.3277 11.3609 14.1548 11.0451C14.23 11.015 14.3202 11 14.4105 11C14.6962 11 15.1774 11.1504 15.2677 11.4361C15.5684 12.2482 15.9294 13.3159 16.2 14.3235C16.2452 14.519 16.2 15.0905 15.9143 15.2559L14.9519 15.8574C14.8917 15.9025 14.8616 15.9627 14.8466 16.0229C14.8165 16.1883 14.8767 16.3988 14.997 16.5793C15.3729 17.1056 15.809 17.6169 16.3053 18.1132C16.8016 18.5944 17.3129 19.0306 17.8242 19.4065C18.0799 19.602 18.4408 19.6171 18.531 19.4667L19.1476 18.5042C19.298 18.2636 19.7642 18.2034 19.9296 18.2034C19.9897 18.2034 20.0349 18.2034 20.08 18.2185C21.3131 18.4892 22.05 18.7298 22.9974 19.1659C23.2832 19.3012 23.4937 19.9329 23.3584 20.2787C23.0426 21.1059 22.5613 21.8427 21.9297 22.4744C21.7492 22.6548 21.5537 22.8203 21.3582 22.9706L21.3131 23.0308H21.0575ZM11.9442 13.3159C11.9141 15.5416 12.9367 17.8425 14.7564 19.6471L14.8015 19.6922C16.576 21.4668 18.8619 22.4894 21.0575 22.4894H21.1327C21.2981 22.3541 21.4485 22.2187 21.5838 22.0834C22.1553 21.5119 22.5914 20.8352 22.8922 20.0682C22.9222 19.978 22.8471 19.6922 22.7719 19.6321C21.8996 19.2411 21.1928 19.0155 19.9897 18.7448C19.8243 18.7448 19.6589 18.7899 19.6138 18.82L19.0273 19.7524C18.7716 20.1735 18.0498 20.2186 17.5385 19.8426C16.9971 19.4516 16.4707 19.0005 15.9594 18.4892C15.4481 17.9779 14.997 17.4365 14.606 16.8951C14.3804 16.5943 14.2902 16.2334 14.3503 15.9176C14.3954 15.692 14.5157 15.5115 14.6962 15.3912L15.6587 14.7897C15.6737 14.7446 15.7188 14.519 15.7038 14.4438C15.4481 13.4513 15.0722 12.3986 14.7864 11.6015C14.7564 11.5865 14.5759 11.5263 14.4405 11.5263C14.3954 11.5263 14.3804 11.5263 14.3804 11.5263C13.6134 11.8271 12.9367 12.2632 12.3652 12.8347C12.2148 13.0001 12.0795 13.1505 11.9442 13.3159Z" fill="#2E6D5C" stroke="#2E6D5C" stroke-width="0.8"/>
</svg>