<svg width="29" height="29" viewBox="0 0 29 29" fill="none" xmlns="http://www.w3.org/2000/svg">
<path d="M27.1715 28.025L27.1716 28.0252C27.4047 28.2582 27.792 28.2583 28.0251 28.0252L28.0251 28.0251C28.2582 27.792 28.2583 27.4172 28.0251 27.184L22.5535 21.7124C24.5729 19.4914 25.8134 16.5428 25.8134 13.3067C25.8134 6.40414 20.2092 0.8 13.3067 0.8C6.40417 0.8 0.8 6.40414 0.8 13.3067C0.8 20.2093 6.40417 25.8134 13.3067 25.8134C16.5461 25.8134 19.502 24.59 21.7248 22.5662L27.1715 28.025ZM13.3067 1.99397C19.5592 1.99397 24.6194 7.05416 24.6194 13.3067C24.6194 19.5592 19.5592 24.6194 13.3067 24.6194C7.05419 24.6194 1.99396 19.5592 1.99396 13.3067C1.99396 7.05416 7.05419 1.99397 13.3067 1.99397Z" fill="#3B5951" stroke="#26694C" stroke-width="0.4"/></svg>