<svg width="26" height="30" viewBox="0 0 26 30" fill="none" xmlns="http://www.w3.org/2000/svg">
<path d="M12.9856 15.2352C16.9391 15.2352 20.1467 12.0276 20.1467 8.07406C20.1467 4.12019 16.9388 0.95 12.9856 0.95C9.03208 0.95 5.82451 4.15757 5.82451 8.1111C5.82451 12.065 9.03242 15.2352 12.9856 15.2352ZM12.9856 2.42037C16.1061 2.42037 18.6393 4.95353 18.6393 8.07406C18.6393 11.1946 16.1061 13.7278 12.9856 13.7278C9.86508 13.7278 7.33192 11.1946 7.33192 8.07406C7.33192 4.95353 9.86508 2.42037 12.9856 2.42037Z" fill="#3B5951" stroke="#26694C" stroke-width="0.1"/>
<path d="M2.29488 28.9998C2.29488 26.4566 3.21625 24.0235 4.83862 22.0691C6.42375 20.2261 8.56159 18.9728 10.9576 18.4934C11.6221 18.3827 12.3227 18.309 12.9856 18.309C18.8839 18.309 23.6763 23.1015 23.6763 28.9998V29.0498H23.7263H25.1337H25.1837V28.9998C25.1837 22.3054 19.7168 16.8387 12.9856 16.8387C12.2048 16.8387 11.4238 16.913 10.6797 17.0618C7.96472 17.5826 5.51037 19.033 3.72543 21.1154L3.72525 21.1156C1.86585 23.3097 0.824512 26.0989 0.824512 28.9998V29.0498H0.874512H2.24488H2.29488V28.9998Z" fill="#3B5951" stroke="#26694C" stroke-width="0.1"/>
</svg>