<svg width="50" height="50" viewBox="0 0 50 50" fill="none" xmlns="http://www.w3.org/2000/svg">
<circle cx="25" cy="25" r="25" fill="#F3E7D7"/>
<path d="M30.7424 38.15L30.8924 38.15L30.8924 38L30.8924 37.7093L30.8924 29.8605L30.8924 29.5698L30.8924 29.4198L30.7424 29.4198L30.161 29.4198L30.011 29.4198L30.011 29.5698L30.011 29.8605L30.011 37.2686L17.5203 37.2686L17.5203 13.7314L30.011 13.7314L30.011 21.1395L30.011 21.4302L30.011 21.5802L30.161 21.5802L30.7424 21.5802L30.8924 21.5802L30.8924 21.4302L30.8924 21.1395L30.8924 13.2907L30.8924 13L30.8924 12.85L30.7424 12.85L30.4517 12.85L17.0796 12.85L16.7889 12.85L16.6389 12.85L16.6389 13L16.6389 13.2907L16.6389 37.7093L16.6389 38L16.6389 38.15L16.7889 38.15L17.0796 38.15L30.4517 38.15L30.7424 38.15ZM33.8328 30.6739L33.9389 30.7823L34.0461 30.6751L34.255 30.4662L38.9062 25.815L38.9062 25.815L38.9085 25.8126L39.1084 25.6037L39.2098 25.4977L39.1061 25.3939L38.9062 25.1941L34.255 20.5429L34.0461 20.334L33.94 20.2279L33.834 20.334L33.4252 20.7428L33.3214 20.8465L33.4229 20.9525L33.6227 21.1615L33.6227 21.1615L33.625 21.1638L37.5205 25.0593L22.3121 25.0593L22.0214 25.0593L21.8714 25.0593L21.8714 25.2093L21.8714 25.7907L21.8714 25.9407L22.0214 25.9407L22.3121 25.9407L37.5211 25.9407L33.625 29.8452L33.6249 29.8454L33.4252 30.0451L33.3203 30.15L33.424 30.2561L33.8328 30.6739Z" fill="#2E6D5C" stroke="#2E6D5C" stroke-width="0.3"/>
</svg>