<svg width="55" height="55" viewBox="0 0 55 55" fill="none" xmlns="http://www.w3.org/2000/svg">
<circle cx="27.5" cy="27.5" r="26.75" stroke="#BBA688" stroke-width="1.5"/>
<path d="M39.5074 18.5053H33.415V15.5097C33.415 12.4115 30.7565 9.9 27.5002 9.9C24.2438 9.9 21.5853 12.4115 21.5853 15.5097V18.5053H15.4926C15.1639 18.5053 14.9 18.7754 14.9 19.1054L14.9 40.4999L14.9 40.5C14.9004 40.8299 15.1641 41.1 15.4926 41.1H39.5074C39.8361 41.1 40.1 40.8299 40.1 40.4999V19.1054C40.1 18.7754 39.8361 18.5053 39.5074 18.5053ZM22.7705 15.5097C22.7705 13.0848 24.8857 11.0999 27.5002 11.0999C30.1146 11.0999 32.2298 13.0848 32.2298 15.5097V18.5053H22.7705V15.5097ZM32.8224 22.025C33.4897 22.025 34.0356 22.5771 34.0356 23.259C34.0356 23.9403 33.4897 24.4924 32.8224 24.4924C32.1551 24.4924 31.6091 23.9403 31.6091 23.259C31.6091 22.5771 32.1551 22.025 32.8224 22.025ZM22.1779 22.0254C22.8452 22.0254 23.3912 22.5774 23.3912 23.259C23.3912 23.9403 22.8453 24.492 22.1779 24.492C21.5106 24.492 20.9647 23.9403 20.9647 23.259C20.9647 22.5774 21.5106 22.0254 22.1779 22.0254ZM16.0852 19.7055H21.5853V20.9021C20.5482 21.1708 19.7795 22.1254 19.7795 23.259C19.7795 24.5994 20.8539 25.692 22.1776 25.692C23.5014 25.692 24.5757 24.599 24.5757 23.259C24.5757 22.1254 23.8071 21.1705 22.7699 20.9021V19.7055H32.2295V20.9018C31.1923 21.1704 30.4236 22.1254 30.4236 23.259C30.4236 24.5993 31.4979 25.6923 32.8217 25.6923C34.1455 25.6923 35.2198 24.5993 35.2198 23.259C35.2198 22.1254 34.4512 21.1701 33.414 20.9018V19.7055H38.9141V39.9001H16.0852V19.7055Z" fill="#BBA688" stroke="#BBA688" stroke-width="0.2"/>
</svg>
