<svg width="29" height="28" viewBox="0 0 29 28" fill="none" xmlns="http://www.w3.org/2000/svg">
<path d="M28.2241 22.0398L28.224 22.0393L26.618 16.8996C26.6179 16.899 26.6177 16.8984 26.6175 16.8978C26.5756 16.7589 26.4824 16.6412 26.3568 16.5684C26.2307 16.4954 26.0814 16.4733 25.9396 16.5067L25.9395 16.5065L25.9302 16.5091C25.9142 16.5135 25.8984 16.5187 25.8829 16.5245L20.1041 18.451C20.1039 18.4511 20.1036 18.4512 20.1034 18.4513C20.0322 18.4747 19.9664 18.5119 19.9095 18.5607C19.8525 18.6097 19.8057 18.6694 19.7717 18.7365C19.7378 18.8035 19.7174 18.8766 19.7117 18.9516C19.706 19.0265 19.7151 19.1019 19.7385 19.1733C19.762 19.2447 19.7992 19.3108 19.8482 19.3679C19.8971 19.4249 19.9569 19.4717 20.0239 19.5057C20.0909 19.5396 20.164 19.56 20.239 19.5658C20.314 19.5715 20.3894 19.5623 20.4607 19.5389L20.4621 19.5385L25.0357 18.0106C23.3702 22.5986 19.0262 25.8215 13.8549 25.8215C7.24924 25.8215 1.89275 20.4685 1.89275 13.8571C1.89275 7.24583 7.24924 1.89286 13.8549 1.89286C15.2516 1.89286 16.6161 2.07975 17.8515 2.50218L17.8515 2.5022L17.8546 2.50322C17.9988 2.55044 18.1559 2.53842 18.2913 2.46985C18.4267 2.40127 18.5293 2.28172 18.5765 2.13753C18.6238 1.99333 18.6119 1.83626 18.5434 1.70084C18.4749 1.56541 18.3554 1.46274 18.2112 1.41539L18.1332 1.6529L18.2141 1.41635C16.835 0.944795 15.3519 0.750059 13.8549 0.750059C6.62555 0.750059 0.75 6.622 0.75 13.8572C0.75 21.0925 6.62555 26.9643 13.8549 26.9643C19.3803 26.9643 24.0736 23.5835 25.989 18.7381L27.1234 22.3771C27.1235 22.3775 27.1236 22.3779 27.1237 22.3783C27.1457 22.4503 27.1816 22.5174 27.2294 22.5757C27.2775 22.6343 27.3367 22.6828 27.4035 22.7185C27.4704 22.7541 27.5436 22.7762 27.619 22.7835C27.6945 22.7908 27.7706 22.7831 27.843 22.7609C27.9155 22.7387 27.9829 22.7024 28.0412 22.6541C28.0996 22.6058 28.1479 22.5465 28.1833 22.4795C28.2187 22.4125 28.2405 22.3392 28.2475 22.2637C28.2545 22.1882 28.2466 22.1121 28.2241 22.0398ZM20.5926 2.66856C20.4669 2.66771 20.3444 2.70831 20.2441 2.78414C20.1425 2.861 20.0694 2.96965 20.0366 3.09278C20.0038 3.21592 20.013 3.3465 20.0629 3.46377C20.1119 3.57884 20.1972 3.67461 20.3057 3.73648C22.1177 4.86182 23.6175 6.43358 24.5913 8.31069C24.617 8.38111 24.6562 8.4459 24.707 8.50129C24.7632 8.56273 24.8322 8.61112 24.9092 8.64307C24.9862 8.67504 25.0692 8.68974 25.1524 8.68623C25.2356 8.68272 25.3171 8.66108 25.3911 8.62274C25.4651 8.58442 25.5298 8.53039 25.5807 8.46443C25.6316 8.39845 25.6674 8.32214 25.6857 8.24089C25.704 8.15962 25.7044 8.07533 25.6867 7.99391C25.6707 7.92052 25.6405 7.85108 25.5978 7.78951C24.5238 5.71865 22.888 3.98626 20.9076 2.75716C20.8134 2.69753 20.7039 2.66675 20.5926 2.66856Z" fill="#2E6D5C" stroke="#2E6D5C" stroke-width="0.5"/>
</svg>
