<svg width="101" height="101" viewBox="0 0 101 101" fill="none" xmlns="http://www.w3.org/2000/svg">
<circle cx="50.5" cy="50.5" r="50.5" fill="white"/>
<path d="M67.259 50L51.5 77.0154L35.741 50L67.259 50Z" stroke="#E4D2B9" stroke-width="2"/>
<path d="M27.032 44.3125C28.383 44.3125 29.735 43.7974 30.7666 42.7658C32.8298 40.7026 32.8299 37.3584 30.7666 35.2967C29.735 34.265 28.383 33.75 27.032 33.75C25.681 33.75 24.329 34.265 23.2974 35.2967C21.2343 37.3598 21.2341 40.7041 23.2974 42.7658C24.329 43.7974 25.681 44.3125 27.032 44.3125ZM24.2041 36.2018C24.9604 35.4455 25.964 35.0297 27.0336 35.0297C28.1032 35.0297 29.1068 35.4455 29.863 36.2018C30.6193 36.958 31.0351 37.9616 31.0351 39.0312C31.0351 40.1007 30.6194 41.1042 29.8632 41.8605C29.1053 42.6154 28.1015 43.0312 27.032 43.0312C25.9624 43.0312 24.9588 42.6154 24.2025 41.8591C22.644 40.3006 22.6439 37.762 24.2041 36.2018Z" fill="#E4D2B9" stroke="#E4D2B9" stroke-width="0.5"/>
<path d="M43.0008 34.0112C41.6497 34.0112 40.2978 34.5263 39.2662 35.5579C37.203 37.6211 37.2029 40.9653 39.2662 43.027C40.2978 44.0586 41.6497 44.5737 43.0008 44.5737C44.3518 44.5737 45.7037 44.0586 46.7353 43.027C48.7985 40.9638 48.7986 37.6196 46.7353 35.5579C45.7037 34.5263 44.3518 34.0112 43.0008 34.0112ZM45.8302 42.1219C45.0739 42.8766 44.0703 43.2924 43.0008 43.2924C41.9311 43.2924 40.9275 42.8766 40.1713 42.1204C39.4167 41.3657 39.0008 40.3621 39.0008 39.2925C39.0008 38.2228 39.4166 37.2192 40.1729 36.463C40.9275 35.7084 41.9311 35.2925 43.0008 35.2925C44.0704 35.2925 45.074 35.7083 45.8302 36.4646C46.5849 37.2192 47.0007 38.2228 47.0007 39.2925C47.0007 40.362 46.5849 41.3656 45.8302 42.1219Z" fill="#2E6D5C" stroke="#2E6D5C" stroke-width="0.5"/>
<path d="M75.032 34.0112C73.681 34.0112 72.329 34.5263 71.2974 35.5579C69.2343 37.6211 69.2341 40.9653 71.2974 43.027C72.329 44.0586 73.681 44.5737 75.032 44.5737C76.383 44.5737 77.735 44.0586 78.7666 43.027C80.8298 40.9638 80.8299 37.6196 78.7666 35.5579C77.735 34.5263 76.383 34.0112 75.032 34.0112ZM77.8615 42.1219C77.1052 42.8766 76.1016 43.2924 75.032 43.2924C73.9624 43.2924 72.9588 42.8766 72.2025 42.1204C71.4479 41.3657 71.032 40.3621 71.032 39.2925C71.032 38.2228 71.4479 37.2192 72.2041 36.463C72.9587 35.7084 73.9623 35.2925 75.032 35.2925C76.1016 35.2925 77.1052 35.7083 77.8615 36.4646C78.6161 37.2192 79.032 38.2228 79.032 39.2925C79.032 40.362 78.6162 41.3656 77.8615 42.1219Z" fill="#2E6D5C" stroke="#2E6D5C" stroke-width="0.5"/>
<path d="M62.7042 35.8187L62.7041 35.8186C61.6725 34.787 60.3205 34.272 58.9695 34.272C57.6185 34.272 56.2665 34.787 55.2349 35.8186C53.1718 37.8818 53.1716 41.226 55.2349 43.2878C56.2665 44.3194 57.6185 44.8344 58.9695 44.8344C60.3205 44.8344 61.6725 44.3194 62.7041 43.2878C64.7658 41.2261 64.7657 37.8819 62.7042 35.8187ZM61.7991 42.381L61.799 42.3811C61.0411 43.139 60.0374 43.5547 58.9695 43.5547C57.8999 43.5547 56.8963 43.1389 56.14 42.3827C55.3838 41.6264 54.968 40.6228 54.968 39.5532C54.968 38.4836 55.3838 37.48 56.14 36.7237C56.8963 35.9675 57.8999 35.5517 58.9695 35.5517C60.0391 35.5517 61.0427 35.9675 61.799 36.7237C63.3592 38.284 63.3591 40.8225 61.7991 42.381Z" fill="#E4D2B9" stroke="#E4D2B9" stroke-width="0.5"/>
</svg>
