<svg width="35" height="35" viewBox="0 0 35 35" fill="none" xmlns="http://www.w3.org/2000/svg">
<circle cx="17.5" cy="17.5" r="16.75" stroke="#BBA688" stroke-width="1.5"/>
<path d="M21.4298 11.6149C19.2767 9.46172 15.7719 9.46172 13.6188 11.6149C12.723 12.5107 12.1572 13.6988 12.0283 14.9624C11.8994 16.2229 12.2137 17.5022 12.9115 18.5615C12.9147 18.5677 12.9178 18.5709 12.921 18.5772L17.2178 24.4708C17.2901 24.5682 17.4033 24.6248 17.5227 24.6248C17.6422 24.6248 17.7553 24.5682 17.8276 24.4708L22.1244 18.5772C22.1276 18.5709 22.1307 18.5677 22.1339 18.5615C22.8317 17.5022 23.146 16.226 23.0171 14.9624C22.8914 13.702 22.3256 12.5107 21.4298 11.6149ZM21.5115 18.1403L17.5227 23.6064L13.5339 18.1403C12.9336 17.2287 12.6664 16.1254 12.7764 15.041C12.8864 13.9503 13.3736 12.9256 14.15 12.1523C16.0108 10.2915 19.0346 10.2915 20.8954 12.1523C21.6687 12.9256 22.1559 13.9534 22.269 15.041C22.3791 16.1254 22.1087 17.2256 21.5115 18.1403Z" fill="#BBA688" stroke="#BBA688" stroke-width="0.5"/>
<path d="M17.5211 12.8379C16.2544 12.8379 15.2266 13.8689 15.2266 15.1325C15.2266 16.3961 16.2576 17.4271 17.5211 17.4271C18.7847 17.4271 19.8157 16.3961 19.8157 15.1325C19.8157 13.8689 18.7879 12.8379 17.5211 12.8379ZM17.5211 16.6727C16.6725 16.6727 15.9809 15.9812 15.9809 15.1325C15.9809 14.2838 16.6725 13.5923 17.5211 13.5923C18.3698 13.5923 19.0613 14.2838 19.0613 15.1325C19.0613 15.9812 18.3698 16.6727 17.5211 16.6727Z" fill="#BBA688" stroke="#BBA688" stroke-width="0.5"/>
</svg>
