<svg width="40" height="40" viewBox="0 0 40 40" fill="none" xmlns="http://www.w3.org/2000/svg">
<circle cx="20" cy="20" r="19.25" stroke="#BBA688" stroke-width="1.5"/>
<path d="M23.4298 14.6149C21.2767 12.4617 17.7719 12.4617 15.6188 14.6149C14.723 15.5107 14.1572 16.6988 14.0283 17.9624C13.8994 19.2229 14.2137 20.5022 14.9115 21.5615C14.9147 21.5677 14.9178 21.5709 14.921 21.5772L19.2178 27.4708C19.2901 27.5682 19.4033 27.6248 19.5227 27.6248C19.6422 27.6248 19.7553 27.5682 19.8276 27.4708L24.1244 21.5772C24.1276 21.5709 24.1307 21.5677 24.1339 21.5615C24.8317 20.5022 25.146 19.226 25.0171 17.9624C24.8914 16.702 24.3256 15.5107 23.4298 14.6149ZM23.5115 21.1403L19.5227 26.6064L15.5339 21.1403C14.9336 20.2287 14.6664 19.1254 14.7764 18.041C14.8864 16.9503 15.3736 15.9256 16.15 15.1523C18.0108 13.2915 21.0346 13.2915 22.8954 15.1523C23.6687 15.9256 24.1559 16.9534 24.269 18.041C24.3791 19.1254 24.1087 20.2256 23.5115 21.1403Z" fill="#BBA688" stroke="#BBA688" stroke-width="0.5"/>
<path d="M19.5211 15.8379C18.2544 15.8379 17.2266 16.8689 17.2266 18.1325C17.2266 19.3961 18.2576 20.4271 19.5211 20.4271C20.7847 20.4271 21.8157 19.3961 21.8157 18.1325C21.8157 16.8689 20.7879 15.8379 19.5211 15.8379ZM19.5211 19.6727C18.6725 19.6727 17.9809 18.9812 17.9809 18.1325C17.9809 17.2838 18.6725 16.5923 19.5211 16.5923C20.3698 16.5923 21.0613 17.2838 21.0613 18.1325C21.0613 18.9812 20.3698 19.6727 19.5211 19.6727Z" fill="#BBA688" stroke="#BBA688" stroke-width="0.5"/>
</svg>
