<svg width="60" height="60" viewBox="0 0 60 60" fill="none" xmlns="http://www.w3.org/2000/svg">
<circle cx="30" cy="30" r="30" fill="#F3E7D7"/>
<path d="M30.111 30.2352C34.0645 30.2352 37.2721 27.0276 37.2721 23.0741C37.2721 19.1202 34.0642 15.95 30.111 15.95C26.1574 15.95 22.9499 19.1576 22.9499 23.1111C22.9499 27.065 26.1578 30.2352 30.111 30.2352ZM30.111 17.4204C33.2315 17.4204 35.7647 19.9535 35.7647 23.0741C35.7647 26.1946 33.2315 28.7278 30.111 28.7278C26.9904 28.7278 24.4573 26.1946 24.4573 23.0741C24.4573 19.9535 26.9904 17.4204 30.111 17.4204Z" fill="#3B5951" stroke="#26694C" stroke-width="0.1"/>
<path d="M19.4204 43.9998C19.4204 41.4566 20.3417 39.0235 21.9641 37.0691C23.5492 35.2261 25.6871 33.9728 28.0831 33.4934C28.7476 33.3827 29.4482 33.309 30.1111 33.309C36.0094 33.309 40.8018 38.1015 40.8018 43.9998V44.0498H40.8518H42.2592H42.3092V43.9998C42.3092 37.3054 36.8423 31.8387 30.1111 31.8387C29.3303 31.8387 28.5493 31.913 27.8052 32.0618C25.0902 32.5826 22.6359 34.033 20.8509 36.1154L20.8507 36.1156C18.9913 38.3097 17.95 41.0989 17.95 43.9998V44.0498H18H19.3704H19.4204V43.9998Z" fill="#3B5951" stroke="#26694C" stroke-width="0.1"/>
</svg>
