<svg width="27" height="33" viewBox="0 0 27 33" fill="none" xmlns="http://www.w3.org/2000/svg">
<path d="M25.5074 9.50526H19.415V6.50973C19.415 3.4115 16.7565 0.9 13.5002 0.9C10.2438 0.9 7.58535 3.4115 7.58535 6.50973V9.50526H1.4926C1.16386 9.50526 0.9 9.77535 0.9 10.1054L0.9 31.4999L0.9 31.5C0.900405 31.8299 1.16413 32.1 1.4926 32.1H25.5074C25.8361 32.1 26.1 31.8299 26.1 31.4999V10.1054C26.1 9.77535 25.8361 9.50526 25.5074 9.50526ZM8.77054 6.50973C8.77054 4.08476 10.8857 2.09992 13.5002 2.09992C16.1146 2.09992 18.2298 4.08476 18.2298 6.50973V9.50526H8.77054V6.50973ZM18.8224 13.025C19.4897 13.025 20.0356 13.5771 20.0356 14.259C20.0356 14.9403 19.4897 15.4924 18.8224 15.4924C18.1551 15.4924 17.6091 14.9403 17.6091 14.259C17.6091 13.5771 18.1551 13.025 18.8224 13.025ZM8.17795 13.0254C8.84524 13.0254 9.3912 13.5774 9.3912 14.259C9.3912 14.9403 8.84529 15.492 8.17795 15.492C7.5106 15.492 6.96469 14.9403 6.96469 14.259C6.96469 13.5774 7.51065 13.0254 8.17795 13.0254ZM2.08519 10.7055H7.58535V11.9021C6.54817 12.1708 5.7795 13.1254 5.7795 14.259C5.7795 15.5994 6.85386 16.692 8.17761 16.692C9.50137 16.692 10.5757 15.599 10.5757 14.259C10.5757 13.1254 9.80707 12.1705 8.76987 11.9021V10.7055H18.2295V11.9018C17.1923 12.1704 16.4236 13.1254 16.4236 14.259C16.4236 15.5993 17.4979 16.6923 18.8217 16.6923C20.1455 16.6923 21.2198 15.5993 21.2198 14.259C21.2198 13.1254 20.4512 12.1701 19.414 11.9018V10.7055H24.9141V30.9001H2.08519V10.7055Z" fill="#3B5951" stroke="#26694C" stroke-width="0.2"/>
</svg>