<svg width="22" height="22" viewBox="0 0 22 22" fill="none" xmlns="http://www.w3.org/2000/svg">
<path d="M11 4.85419C7.7324 4.85419 5.07324 7.39773 5.07324 10.5233C5.07324 13.6488 7.7324 16.191 11 16.191C14.2676 16.191 16.9254 13.6488 16.9254 10.5233C16.9254 7.39773 14.2676 4.85419 11 4.85419ZM11 14.5757C8.66338 14.5757 6.76338 12.7569 6.76338 10.5233C6.76338 8.28824 8.66338 6.47084 11 6.47084C13.3352 6.47084 15.2366 8.28824 15.2366 10.5233C15.2352 12.7569 13.3352 14.5757 11 14.5757Z" fill="#2E6D5C"/>
<path d="M17.5722 5.40239C18.0039 5.40239 18.3539 5.06763 18.3539 4.65469C18.3539 4.24174 18.0039 3.90698 17.5722 3.90698C17.1405 3.90698 16.7905 4.24174 16.7905 4.65469C16.7905 5.06763 17.1405 5.40239 17.5722 5.40239Z" fill="#2E6D5C"/>
<path d="M16.9014 0H5.09718C2.28169 0 0 2.18383 0 4.87691V16.1679C0 18.861 2.2831 21.0448 5.09718 21.0448H16.9014C19.7169 21.0448 22 18.861 22 16.1679V4.87826C22 2.18383 19.7169 0 16.9014 0ZM20.3099 16.1679C20.3099 17.9651 18.7803 19.4282 16.9014 19.4282H5.09718C3.21831 19.4282 1.69014 17.9651 1.69014 16.1679V4.87826C1.69014 3.08108 3.21831 1.618 5.09718 1.618H16.9014C18.7803 1.618 20.3099 3.07973 20.3099 4.87826V16.1679Z" fill="#2E6D5C"/>
</svg>
