<svg width="42" height="42" viewBox="0 0 42 42" fill="none" xmlns="http://www.w3.org/2000/svg">
<path d="M0.75 41V41.25H1H41H41.25V41V1V0.75H41H1H0.75V1V41ZM1.875 1.875H40.125V40.125H1.875V1.875Z" fill="#2E6D5C" stroke="#2E6D5C" stroke-width="0.5"/>
<path d="M31.0938 31.4287V31.1787H30.8438H11.1562H10.9062V31.4287V32.0537V32.3037H11.1562H30.8438H31.0938V32.0537V31.4287Z" fill="#E4D2B9" stroke="#E4D2B9" stroke-width="0.5"/>
<path d="M31.0938 24.2676V24.0176H30.8438H11.1562H10.9062V24.2676V24.8926V25.1426H11.1562H30.8438H31.0938V24.8926V24.2676Z" fill="#E4D2B9" stroke="#E4D2B9" stroke-width="0.5"/>
<path d="M31.0938 17.1074V16.8574H30.8438H11.1562H10.9062V17.1074V17.7324V17.9824H11.1562H30.8438H31.0938V17.7324V17.1074Z" fill="#E4D2B9" stroke="#E4D2B9" stroke-width="0.5"/>
<path d="M31.0938 9.94629V9.69629H30.8438H11.1562H10.9062V9.94629V10.5713V10.8213H11.1562H30.8438H31.0938V10.5713V9.94629Z" fill="#E4D2B9" stroke="#E4D2B9" stroke-width="0.5"/>
</svg>
