<svg width="25" height="13" viewBox="0 0 25 13" fill="none" xmlns="http://www.w3.org/2000/svg">
<path d="M12.5193 12.3267C5.81664 12.3267 0.46225 6.6641 0.269646 6.43297L0 6.16333L0.231125 5.89368C0.46225 5.66256 5.81664 0 12.5193 0C19.2219 0 24.5763 5.66256 24.7689 5.89368L25 6.16333L24.7689 6.43297C24.5763 6.6641 19.2219 12.3267 12.5193 12.3267ZM1.07858 6.16333C2.23421 7.28043 6.93374 11.5562 12.5193 11.5562C18.1048 11.5562 22.8043 7.28043 23.9599 6.16333C22.8043 5.04622 18.1048 0.770416 12.5193 0.770416C6.93374 0.770416 2.23421 5.04622 1.07858 6.16333Z" fill="white"/>
<path d="M12.5185 12.2113C9.20568 12.2113 6.4707 9.5148 6.4707 6.16349C6.4707 5.93236 6.62479 5.77828 6.85591 5.77828C7.08704 5.77828 7.24112 5.93236 7.24112 6.16349C7.24112 9.05255 9.59089 11.4408 12.5185 11.4408C15.446 11.4408 17.7958 9.05255 17.7958 6.16349C17.7958 3.27443 15.4075 0.886139 12.5185 0.886139C10.5154 0.886139 8.70491 2.00324 7.78041 3.81372C7.70337 4.00632 7.47224 4.08336 7.27964 3.9678C7.08704 3.89076 7.00999 3.65964 7.12556 3.46703C8.16562 1.38691 10.2457 0.115723 12.5185 0.115723C15.8313 0.115723 18.5662 2.81218 18.5662 6.16349C18.5662 9.5148 15.8313 12.2113 12.5185 12.2113Z" fill="white"/>
<path d="M12.5189 8.70584C11.1322 8.70584 9.97656 7.58874 9.97656 6.16347C9.97656 4.7382 11.0937 3.62109 12.5189 3.62109C13.9442 3.62109 15.0613 4.7382 15.0613 6.16347C15.0613 6.39459 14.9072 6.54867 14.6761 6.54867C14.445 6.54867 14.2909 6.39459 14.2909 6.16347C14.2909 5.20045 13.5205 4.39151 12.5189 4.39151C11.5174 4.39151 10.747 5.16193 10.747 6.16347C10.747 7.16501 11.5174 7.93542 12.5189 7.93542C12.9812 7.93542 13.4049 7.74282 13.7516 7.43465C13.9057 7.28057 14.1368 7.28057 14.2909 7.43465C14.445 7.58874 14.445 7.81986 14.2909 7.97394C13.7901 8.43619 13.1738 8.70584 12.5189 8.70584Z" fill="#D6B68A"/>
</svg>
