<svg width="22" height="22" viewBox="0 0 22 22" fill="none" xmlns="http://www.w3.org/2000/svg">
<path d="M20.3496 21.0552L20.3497 21.0553C20.5426 21.2482 20.8623 21.2483 21.0553 21.0553L21.0553 21.0553C21.2481 20.8623 21.2483 20.5519 21.0553 20.3589L17.0371 16.3407C18.5216 14.6908 19.4321 12.5089 19.4321 10.1161C19.4321 4.97443 15.2577 0.8 10.1161 0.8C4.97445 0.8 0.8 4.97443 0.8 10.1161C0.8 15.2577 4.97445 19.4322 10.1161 19.4322C12.5111 19.4322 14.6983 18.5342 16.3499 17.0466L20.3496 21.0552ZM10.1161 1.78813C14.7189 1.78813 18.444 5.5132 18.444 10.1161C18.444 14.7189 14.7189 18.444 10.1161 18.444C5.51322 18.444 1.78812 14.7189 1.78812 10.1161C1.78812 5.5132 5.51322 1.78813 10.1161 1.78813Z" fill="#BBA688" stroke="#BBA688" stroke-width="0.4"/>
</svg>
