<svg width="810" height="109" viewBox="0 0 810 109" fill="#0000" xmlns="http://www.w3.org/2000/svg">
<path d="M44.07 87.38C35.8667 87.38 28.43 85.6167 21.76 82.09C15.1667 78.4867 9.95333 73.5417 6.12 67.255C2.36333 60.8917 0.485 53.7233 0.485 45.75C0.485 37.7767 2.36333 30.6467 6.12 24.36C9.95333 17.9967 15.1667 13.0517 21.76 9.525C28.43 5.92166 35.905 4.12 44.185 4.12C51.1617 4.12 57.4483 5.34667 63.045 7.8C68.7183 10.2533 73.4717 13.78 77.305 18.38L65.345 29.42C59.9017 23.1333 53.155 19.99 45.105 19.99C40.1217 19.99 35.675 21.1017 31.765 23.325C27.855 25.4717 24.7883 28.5 22.565 32.41C20.4183 36.32 19.345 40.7667 19.345 45.75C19.345 50.7333 20.4183 55.18 22.565 59.09C24.7883 63 27.855 66.0667 31.765 68.29C35.675 70.4367 40.1217 71.51 45.105 71.51C53.155 71.51 59.9017 68.3283 65.345 61.965L77.305 73.005C73.4717 77.6817 68.7183 81.2467 63.045 83.7C57.3717 86.1533 51.0467 87.38 44.07 87.38ZM138.363 38.85H117.433V86H99.6078V38.85H78.6778V24.13H138.363V38.85ZM184.381 23.21C190.131 23.21 195.344 24.5517 200.021 27.235C204.774 29.8417 208.492 33.56 211.176 38.39C213.859 43.1433 215.201 48.7017 215.201 55.065C215.201 61.4283 213.859 67.025 211.176 71.855C208.492 76.6083 204.774 80.3267 200.021 83.01C195.344 85.6167 190.131 86.92 184.381 86.92C176.484 86.92 170.274 84.4283 165.751 79.445V108.31H147.811V24.13H164.946V31.26C169.392 25.8933 175.871 23.21 184.381 23.21ZM181.276 72.2C185.876 72.2 189.632 70.6667 192.546 67.6C195.536 64.4567 197.031 60.2783 197.031 55.065C197.031 49.8517 195.536 45.7117 192.546 42.645C189.632 39.5017 185.876 37.93 181.276 37.93C176.676 37.93 172.881 39.5017 169.891 42.645C166.977 45.7117 165.521 49.8517 165.521 55.065C165.521 60.2783 166.977 64.4567 169.891 67.6C172.881 70.6667 176.676 72.2 181.276 72.2ZM250.799 23.21C260.382 23.21 267.742 25.51 272.879 30.11C278.015 34.6333 280.584 41.495 280.584 50.695V86H263.794V78.295C260.42 84.045 254.134 86.92 244.934 86.92C240.18 86.92 236.04 86.115 232.514 84.505C229.064 82.895 226.419 80.6717 224.579 77.835C222.739 74.9983 221.819 71.7783 221.819 68.175C221.819 62.425 223.965 57.9017 228.259 54.605C232.629 51.3083 239.337 49.66 248.384 49.66H262.644C262.644 45.75 261.455 42.76 259.079 40.69C256.702 38.5433 253.137 37.47 248.384 37.47C245.087 37.47 241.829 38.0067 238.609 39.08C235.465 40.0767 232.782 41.4567 230.559 43.22L224.119 30.685C227.492 28.3083 231.517 26.4683 236.194 25.165C240.947 23.8617 245.815 23.21 250.799 23.21ZM249.419 74.845C252.485 74.845 255.207 74.155 257.584 72.775C259.96 71.3183 261.647 69.21 262.644 66.45V60.125H250.339C242.979 60.125 239.299 62.54 239.299 67.37C239.299 69.67 240.18 71.51 241.944 72.89C243.784 74.1933 246.275 74.845 249.419 74.845ZM348.148 38.85H327.218V86H309.393V38.85H288.463V24.13H348.148V38.85ZM384.108 86.92C377.591 86.92 371.726 85.5783 366.513 82.895C361.376 80.135 357.351 76.34 354.438 71.51C351.525 66.68 350.068 61.1983 350.068 55.065C350.068 48.9317 351.525 43.45 354.438 38.62C357.351 33.79 361.376 30.0333 366.513 27.35C371.726 24.59 377.591 23.21 384.108 23.21C390.625 23.21 396.451 24.59 401.588 27.35C406.725 30.0333 410.75 33.79 413.663 38.62C416.576 43.45 418.033 48.9317 418.033 55.065C418.033 61.1983 416.576 66.68 413.663 71.51C410.75 76.34 406.725 80.135 401.588 82.895C396.451 85.5783 390.625 86.92 384.108 86.92ZM384.108 72.2C388.708 72.2 392.465 70.6667 395.378 67.6C398.368 64.4567 399.863 60.2783 399.863 55.065C399.863 49.8517 398.368 45.7117 395.378 42.645C392.465 39.5017 388.708 37.93 384.108 37.93C379.508 37.93 375.713 39.5017 372.723 42.645C369.733 45.7117 368.238 49.8517 368.238 55.065C368.238 60.2783 369.733 64.4567 372.723 67.6C375.713 70.6667 379.508 72.2 384.108 72.2ZM459.812 86.92C453.219 86.92 447.277 85.5783 441.987 82.895C436.774 80.135 432.672 76.34 429.682 71.51C426.769 66.68 425.312 61.1983 425.312 55.065C425.312 48.9317 426.769 43.45 429.682 38.62C432.672 33.79 436.774 30.0333 441.987 27.35C447.277 24.59 453.219 23.21 459.812 23.21C466.329 23.21 472.002 24.59 476.832 27.35C481.739 30.0333 485.304 33.905 487.527 38.965L473.612 46.44C470.392 40.7667 465.754 37.93 459.697 37.93C455.02 37.93 451.149 39.4633 448.082 42.53C445.015 45.5967 443.482 49.775 443.482 55.065C443.482 60.355 445.015 64.5333 448.082 67.6C451.149 70.6667 455.02 72.2 459.697 72.2C465.83 72.2 470.469 69.3633 473.612 63.69L487.527 71.28C485.304 76.1867 481.739 80.02 476.832 82.78C472.002 85.54 466.329 86.92 459.812 86.92ZM583.088 54.835C583.088 64.4183 579.868 72.0083 573.428 77.605C567.064 83.125 557.941 86.3067 546.058 87.15V108.31H529.613V87.15C517.729 86.3067 508.568 83.1633 502.128 77.72C495.764 72.2 492.583 64.5717 492.583 54.835C492.583 45.2517 495.726 37.815 502.013 32.525C508.376 27.235 517.576 24.1683 529.613 23.325V0.669995H546.058V23.325C557.941 24.1683 567.064 27.2733 573.428 32.64C579.868 38.0067 583.088 45.405 583.088 54.835ZM509.948 54.835C509.948 60.355 511.519 64.61 514.663 67.6C517.806 70.59 522.789 72.4683 529.613 73.235V37.24C522.789 37.93 517.806 39.7317 514.663 42.645C511.519 45.4817 509.948 49.545 509.948 54.835ZM546.058 73.235C552.881 72.4683 557.864 70.59 561.008 67.6C564.228 64.61 565.838 60.355 565.838 54.835C565.838 49.545 564.228 45.4817 561.008 42.645C557.864 39.7317 552.881 37.93 546.058 37.24V73.235ZM655.38 55.295C655.38 55.525 655.265 57.135 655.035 60.125H608.23C609.074 63.9583 611.067 66.9867 614.21 69.21C617.354 71.4333 621.264 72.545 625.94 72.545C629.16 72.545 631.997 72.085 634.45 71.165C636.98 70.1683 639.319 68.635 641.465 66.565L651.01 76.915C645.184 83.585 636.674 86.92 625.48 86.92C618.504 86.92 612.332 85.5783 606.965 82.895C601.599 80.135 597.459 76.34 594.545 71.51C591.632 66.68 590.175 61.1983 590.175 55.065C590.175 49.0083 591.594 43.565 594.43 38.735C597.344 33.8283 601.292 30.0333 606.275 27.35C611.335 24.59 616.97 23.21 623.18 23.21C629.237 23.21 634.719 24.5133 639.625 27.12C644.532 29.7267 648.365 33.4833 651.125 38.39C653.962 43.22 655.38 48.855 655.38 55.295ZM623.295 36.78C619.232 36.78 615.82 37.93 613.06 40.23C610.3 42.53 608.614 45.6733 608 49.66H638.475C637.862 45.75 636.175 42.645 633.415 40.345C630.655 37.9683 627.282 36.78 623.295 36.78ZM705.587 23.21C711.337 23.21 716.55 24.5517 721.227 27.235C725.98 29.8417 729.699 33.56 732.382 38.39C735.065 43.1433 736.407 48.7017 736.407 55.065C736.407 61.4283 735.065 67.025 732.382 71.855C729.699 76.6083 725.98 80.3267 721.227 83.01C716.55 85.6167 711.337 86.92 705.587 86.92C697.69 86.92 691.48 84.4283 686.957 79.445V108.31H669.017V24.13H686.152V31.26C690.599 25.8933 697.077 23.21 705.587 23.21ZM702.482 72.2C707.082 72.2 710.839 70.6667 713.752 67.6C716.742 64.4567 718.237 60.2783 718.237 55.065C718.237 49.8517 716.742 45.7117 713.752 42.645C710.839 39.5017 707.082 37.93 702.482 37.93C697.882 37.93 694.087 39.5017 691.097 42.645C688.184 45.7117 686.727 49.8517 686.727 55.065C686.727 60.2783 688.184 64.4567 691.097 67.6C694.087 70.6667 697.882 72.2 702.482 72.2ZM809.125 55.295C809.125 55.525 809.01 57.135 808.78 60.125H761.975C762.819 63.9583 764.812 66.9867 767.955 69.21C771.099 71.4333 775.009 72.545 779.685 72.545C782.905 72.545 785.742 72.085 788.195 71.165C790.725 70.1683 793.064 68.635 795.21 66.565L804.755 76.915C798.929 83.585 790.419 86.92 779.225 86.92C772.249 86.92 766.077 85.5783 760.71 82.895C755.344 80.135 751.204 76.34 748.29 71.51C745.377 66.68 743.92 61.1983 743.92 55.065C743.92 49.0083 745.339 43.565 748.175 38.735C751.089 33.8283 755.037 30.0333 760.02 27.35C765.08 24.59 770.715 23.21 776.925 23.21C782.982 23.21 788.464 24.5133 793.37 27.12C798.277 29.7267 802.11 33.4833 804.87 38.39C807.707 43.22 809.125 48.855 809.125 55.295ZM777.04 36.78C772.977 36.78 769.565 37.93 766.805 40.23C764.045 42.53 762.359 45.6733 761.745 49.66H792.22C791.607 45.75 789.92 42.645 787.16 40.345C784.4 37.9683 781.027 36.78 777.04 36.78Z" fill="#000"/>
</svg>
