<svg width="101" height="101" viewBox="0 0 101 101" fill="none" xmlns="http://www.w3.org/2000/svg">
<circle cx="50.5" cy="50.5" r="50.5" fill="white"/>
<path d="M25.75 77V77.25H26H76H76.25V77V27V26.75H76H26H25.75V27V77ZM27.0312 28.0312H74.9688V75.9688H27.0312V28.0312Z" fill="#2E6D5C" stroke="#2E6D5C" stroke-width="0.5"/>
<path d="M63.5547 65.0361V64.7861H63.3047H38.6953H38.4453V65.0361V65.8174V66.0674H38.6953H63.3047H63.5547V65.8174V65.0361Z" fill="#E4D2B9" stroke="#E4D2B9" stroke-width="0.5"/>
<path d="M63.5547 56.0845V55.8345H63.3047H38.6953H38.4453V56.0845V56.8657V57.1157H38.6953H63.3047H63.5547V56.8657V56.0845Z" fill="#E4D2B9" stroke="#E4D2B9" stroke-width="0.5"/>
<path d="M63.5547 47.1343V46.8843H63.3047H38.6953H38.4453V47.1343V47.9155V48.1655H38.6953H63.3047H63.5547V47.9155V47.1343Z" fill="#E4D2B9" stroke="#E4D2B9" stroke-width="0.5"/>
<path d="M63.5547 38.1826V37.9326H63.3047H38.6953H38.4453V38.1826V38.9639V39.2139H38.6953H63.3047H63.5547V38.9639V38.1826Z" fill="#E4D2B9" stroke="#E4D2B9" stroke-width="0.5"/>
</svg>
