<svg width="101" height="101" viewBox="0 0 101 101" fill="none" xmlns="http://www.w3.org/2000/svg">
<circle cx="50.5" cy="50.5" r="50.5" fill="white"/>
<path d="M23.7022 70L49.8689 23.054L76.0355 70H23.7022Z" stroke="#E4D2B9" stroke-width="2"/>
<path d="M49.4592 61.9834C35.1969 61.9834 23.8034 49.9342 23.3936 49.4424L22.8198 48.8687L23.3116 48.2949C23.8034 47.8031 35.1969 35.7539 49.4592 35.7539C63.7215 35.7539 75.1149 47.8031 75.5247 48.2949L76.0165 48.8687L75.5247 49.4424C75.1149 49.9342 63.7215 61.9834 49.4592 61.9834ZM25.1149 48.8687C27.5739 51.2457 37.5739 60.3441 49.4592 60.3441C61.3444 60.3441 71.3444 51.2457 73.8034 48.8687C71.3444 46.4916 61.3444 37.3933 49.4592 37.3933C37.5739 37.3933 27.5739 46.4916 25.1149 48.8687Z" fill="#2E6D5C"/>
<path d="M49.4592 61.7377C42.41 61.7377 36.5903 56 36.5903 48.8689C36.5903 48.377 36.9182 48.0492 37.41 48.0492C37.9018 48.0492 38.2297 48.377 38.2297 48.8689C38.2297 55.0164 43.2297 60.0984 49.4592 60.0984C55.6887 60.0984 60.6887 55.0164 60.6887 48.8689C60.6887 42.7213 55.6067 37.6393 49.4592 37.6393C45.1969 37.6393 41.3444 40.0164 39.3772 43.8689C39.2133 44.2787 38.7215 44.4426 38.3116 44.1967C37.9018 44.0328 37.7379 43.541 37.9838 43.1311C40.1969 38.7049 44.6231 36 49.4592 36C56.5084 36 62.328 41.7377 62.328 48.8689C62.328 56 56.5084 61.7377 49.4592 61.7377Z" fill="#2E6D5C"/>
<path d="M49.4587 54.2787C46.5078 54.2787 44.0488 51.9016 44.0488 48.8688C44.0488 45.836 46.4259 43.459 49.4587 43.459C52.4915 43.459 54.8685 45.836 54.8685 48.8688C54.8685 49.3606 54.5406 49.6885 54.0488 49.6885C53.557 49.6885 53.2292 49.3606 53.2292 48.8688C53.2292 46.8196 51.5898 45.0983 49.4587 45.0983C47.3275 45.0983 45.6882 46.7377 45.6882 48.8688C45.6882 51 47.3275 52.6393 49.4587 52.6393C50.4423 52.6393 51.3439 52.2295 52.0816 51.5737C52.4095 51.2459 52.9013 51.2459 53.2292 51.5737C53.557 51.9016 53.557 52.3934 53.2292 52.7213C52.1636 53.7049 50.8521 54.2787 49.4587 54.2787Z" fill="#E4D2B9"/>
</svg>
