<svg width="20" height="20" viewBox="0 0 20 20" fill="none" xmlns="http://www.w3.org/2000/svg">
<path d="M9.64919 12.1387C9.64919 11.8025 9.70161 11.5084 9.80645 11.2563C9.91936 10.9958 10.0524 10.7773 10.2056 10.6008C10.3669 10.4244 10.5766 10.2143 10.8347 9.97059C11.1573 9.67647 11.3952 9.42437 11.5484 9.21429C11.7016 8.9958 11.7782 8.73529 11.7782 8.43277C11.7782 8.02101 11.625 7.69328 11.3185 7.44958C11.0121 7.19748 10.5887 7.07143 10.0484 7.07143C9.10484 7.07143 8.38306 7.40336 7.88306 8.06723L7 7.41176C7.33871 6.95798 7.77016 6.60924 8.29435 6.36555C8.82661 6.12185 9.43952 6 10.1331 6C11.0121 6 11.7097 6.20168 12.2258 6.60504C12.7419 7 13 7.54622 13 8.2437C13 8.58823 12.9435 8.89496 12.8306 9.16387C12.7258 9.42437 12.5968 9.64286 12.4435 9.81933C12.2903 9.9958 12.0847 10.2059 11.8266 10.4496C11.496 10.7605 11.25 11.0336 11.0887 11.2689C10.9355 11.5042 10.8589 11.7941 10.8589 12.1387H9.64919ZM10.2661 15C10.0403 15 9.85081 14.9244 9.69758 14.7731C9.55242 14.6134 9.47984 14.4202 9.47984 14.1933C9.47984 13.9664 9.55242 13.7773 9.69758 13.626C9.85081 13.4664 10.0403 13.3866 10.2661 13.3866C10.4919 13.3866 10.6774 13.4664 10.8226 13.626C10.9677 13.7773 11.0403 13.9664 11.0403 14.1933C11.0403 14.4202 10.9637 14.6134 10.8105 14.7731C10.6653 14.9244 10.4839 15 10.2661 15Z" fill="#E4D2B9"/>
<circle cx="10" cy="10" r="9.25" stroke="#E4D2B9" stroke-width="1.5"/>
</svg>
